<svg width="16" height="16" viewBox="0 0 16 16" fill="none" xmlns="http://www.w3.org/2000/svg">
<g clip-path="url(#clip0_8054_1262)">
<path fill-rule="evenodd" clip-rule="evenodd" d="M1 2H7V8.08016V14H1V2ZM7 15H1H0V14V2C0 1.44772 0.447715 1 1 1H7C7.55228 1 8 1.44772 8 2V7.11048L8.99975 6.14105C9.09303 6.05059 9.21787 6 9.34782 6H15.7689C16.2177 6 16.4392 6.54548 16.1175 6.85841L8 14.7544L7.74753 15H7.4H7ZM8 13.3594L8.49896 12.874L8 12.3391V13.3594ZM8 11.2395L9.03667 12.351L9.70613 11.6998L8 9.87062V11.2395ZM8 8.77108L10.2438 11.1767L11.0029 10.4384L8.62913 7.89336L8 8.50342V8.77108ZM9.55043 7L9.16765 7.37117L11.5407 9.91532L12.3 9.17669L10.2697 7H9.55043ZM13.5966 7.91547L12.8377 8.65365L11.2953 7H12.7427L13.5966 7.91547ZM14.1343 7.39243L13.7683 7H14.5378L14.1343 7.39243Z" fill="#808080"/>
</g>
<defs>
<clipPath id="clip0_8054_1262">
<rect width="16" height="16" fill="white"/>
</clipPath>
</defs>
</svg>
