<svg width="24" height="24" viewBox="0 0 24 24" fill="none" xmlns="http://www.w3.org/2000/svg">
<path fill-rule="evenodd" clip-rule="evenodd" d="M3 4H11V12.5424V20H3V4ZM11 21H3H2V20V4C2 3.44772 2.44772 3 3 3H11C11.5523 3 12 3.44772 12 4V11.6609L13.7424 10.1249C13.8337 10.0444 13.9513 10 14.0731 10H18.7101L18.7251 9.98683L18.7379 10H23.1244C23.5847 10 23.8005 10.5696 23.4556 10.8746L12.005 21H12H11ZM12 19.6696L13.1333 18.6674L12 17.5044V19.6696ZM12 16.0734L13.8823 18.0051L14.7431 17.2439L12 14.4288V16.0734ZM12 12.9977L12.0395 13.0383L15.4921 16.5816L16.4725 15.7146L12.9799 12.1302L12 12.994V12.9977ZM21.8041 11L20.6805 11.9936L19.7123 11H21.8041ZM19.9315 12.6559L18.3179 11H16.4929L18.9512 13.5228L19.9315 12.6559ZM18.2022 14.1851L15.0985 11H14.262L13.73 11.469L17.2216 15.0523L18.2022 14.1851Z" fill="#808080"/>
</svg>
